inDegrees=no
num_controls=7
num_derivatives=13
num_iterations=85
num_multipliers=7
num_parameters=0
num_slacks=7
num_states=26
objective=0.369307
objective_accelerations=0.039105
objective_balance=0.001730
objective_effort=0.057343
objective_height=0.265111
objective_ligament=0.006019
solver_duration=946.374332
status=Solve_Succeeded
success=true
DataType=double
version=3
OpenSimVersion=4.5
endheader
time	/jointset/ground_pelvis/pelvis_tilt/value	/jointset/ground_pelvis/pelvis_tx/value	/jointset/ground_pelvis/pelvis_ty/value	/jointset/hip_r/hip_flexion_r/value	/jointset/hip_r/hip_adduction_r/value	/jointset/hip_r/hip_rotation_r/value	/jointset/back/lumbar_extension/value	/jointset/patellofemoral_r/patellar_flexion_r/value	/jointset/knee_r/knee_flexion_r/value	/jointset/knee_r/knee_adduction_r/value	/jointset/knee_r/knee_rotation_r/value	/jointset/ankle_r/ankle_angle_r/value	/jointset/subtalar_r/subtalar_angle_r/value	/jointset/ground_pelvis/pelvis_tilt/speed	/jointset/ground_pelvis/pelvis_tx/speed	/jointset/ground_pelvis/pelvis_ty/speed	/jointset/hip_r/hip_flexion_r/speed	/jointset/hip_r/hip_adduction_r/speed	/jointset/hip_r/hip_rotation_r/speed	/jointset/back/lumbar_extension/speed	/jointset/patellofemoral_r/patellar_flexion_r/speed	/jointset/knee_r/knee_flexion_r/speed	/jointset/knee_r/knee_adduction_r/speed	/jointset/knee_r/knee_rotation_r/speed	/jointset/ankle_r/ankle_angle_r/speed	/jointset/subtalar_r/subtalar_angle_r/speed	/forceset/tau_hip_flexion_r	/forceset/tau_hip_adduction_r	/forceset/tau_hip_rotation_r	/forceset/tau_knee_flexion_r	/forceset/tau_ankle_angle_r	/forceset/tau_subtalar_angle_r	/forceset/tau_lumbar_extension	lambda_cid13_p0	lambda_cid14_p0	lambda_cid14_p1	lambda_cid14_p2	lambda_cid14_p3	lambda_cid14_p4	lambda_cid14_p5	/jointset/ground_pelvis/pelvis_tilt/accel	/jointset/ground_pelvis/pelvis_tx/accel	/jointset/ground_pelvis/pelvis_ty/accel	/jointset/hip_r/hip_flexion_r/accel	/jointset/hip_r/hip_adduction_r/accel	/jointset/hip_r/hip_rotation_r/accel	/jointset/back/lumbar_extension/accel	/jointset/patellofemoral_r/patellar_flexion_r/accel	/jointset/knee_r/knee_flexion_r/accel	/jointset/knee_r/knee_adduction_r/accel	/jointset/knee_r/knee_rotation_r/accel	/jointset/ankle_r/ankle_angle_r/accel	/jointset/subtalar_r/subtalar_angle_r/accel	gamma_cid13_p0	gamma_cid14_p0	gamma_cid14_p1	gamma_cid14_p2	gamma_cid14_p3	gamma_cid14_p4	gamma_cid14_p5
1	-0.2394812938495421	-0.03958526982855011	0.3586482692005728	2.181631808031379	-0.2249046592083583	0.1295244395018924	-0.7853910053289884	2.181661296061567	2.18166129606148	-0.1730414010035148	0.1735674764164102	0.3756910415420682	0.1650558162179506	0.02397307258897567	-0.005591742596424937	-0.0007189704684570729	-0.008973899236944957	0.001775070062192597	-0.0003121817632676187	0.001119700917310456	-0.0004031693662685443	-0.0004031693662686042	-0.0004855024739656812	8.751457698152426e-05	-0.01621418648104961	-0.004526201438365427	-0.2718477041796066	-0.0443741659127594	-0.01573216778683536	-0.4310777910053748	0.07293921489711513	-0.01398968197173616	0.2973332741031061	-0.02584805708952195	-23.46579972656344	-13.3216932846285	6.129307375433589	-8.837981290335268	-676.1333666015696	72.11628221826869	0.3510885264666712	0.1964769673362157	0.2215287881822307	-1.173897821777655	-0.3597706152010545	-0.7303797767003725	0.1040520583374847	-0.04575385568377118	-0.04575385568377406	-0.4173152974768032	0.1906179187460295	0.7915441610139669	-0.230957569045306	2.037326607466097e-09	-4.416091039377138e-09	1.72118513708216e-09	3.994199033290062e-09	1.668201029590854e-08	-3.048900701489027e-09	8.773601428406969e-09
1.01	-0.2392239633229407	-0.03963186289283581	0.3586548953332225	2.181475156539103	-0.2249049173423489	0.129483117732293	-0.7853755457741151	2.181648722500058	2.181648722500158	-0.1730667340367826	0.1735768773537143	0.3755701731856237	0.1649998046850934	0.02753059907094031	-0.003773672997332747	0.002321152934635193	-0.0232134734153044	-0.001846314093304221	-0.008047721713784943	0.001846761801011982	-0.00273161239649884	-0.002731612396498836	-0.004466585547453297	0.0017620067798168	-0.007780834647437533	-0.0066243293623593	-0.2763760925809975	-0.04410769046520988	-0.01585622757068046	-0.4376153621819967	0.07341435194186523	-0.0145584885489761	0.3017463621624868	-0.02577040470248686	-23.97257781315682	-13.74141241883083	6.292116928619679	-7.822269437674708	-684.7037688986027	72.80815819051007	0.363722054317035	0.1674652339238895	0.3867989926749448	-1.677546640289093	-0.3662591328012225	-0.8094738516657541	0.03821586372928052	-0.4194022371549736	-0.4194022371549651	-0.3713324586458192	0.1512757675253185	0.8960247834423198	-0.1914660951387694	1.136563867003452e-08	-1.47713605064408e-08	2.03174007604207e-08	3.568826223575009e-08	6.792292065971531e-08	7.325552045005433e-09	1.11702583078802e-07
1.02	-0.2389299300624679	-0.03966167660558496	0.3587002316751635	2.181150397420139	-0.2249419766813097	0.1293615740137004	-0.785356579058309	2.181594261966154	2.181594261966191	-0.1731284434300567	0.1736021053923385	0.3755389971652969	0.1649243667347838	0.03131361936313232	-0.002235872289117587	0.007023071389800203	-0.04259542457062541	-0.00558517093188958	-0.01635657156183479	0.001821133098418682	-0.008780563845219157	-0.008780563845219035	-0.007760774475383839	0.003252934841573503	0.00172428074247543	-0.00841148492884585	-0.2809044809823905	-0.04384121501766204	-0.01598028735452256	-0.4441529333586188	0.07388948898661557	-0.01512729512621882	0.3061594502218657	-0.02568671828868266	-24.47614447781921	-14.16336714131456	6.458478713236918	-6.851150063634955	-693.2574532891033	73.46338950849409	0.3961872885122176	0.1404231891608521	0.553887798596707	-2.202373217169847	-0.3832651518187711	-0.8450417562068437	-0.04648585892176493	-0.7898555393815422	-0.7898555393815344	-0.2799364683654302	0.1539050905303266	1.005896872274195	-0.1687630975438321	1.331273498930976e-08	-2.415708287663274e-08	1.987729954469542e-08	3.878656519102833e-08	1.016410361792288e-07	2.023395366793061e-08	1.250122438064681e-07
1.03	-0.2385985387043544	-0.03967780104730701	0.3588010771601245	2.18060711266605	-0.2250168276665974	0.1291541454468484	-0.7853402098351667	2.181459429213958	2.181459429213984	-0.1732192817801475	0.1736412266423508	0.3756074526450795	0.1648325546222469	0.03484863547328872	-0.001063659805675531	0.01344086126116406	-0.06681872091016157	-0.009397310845365199	-0.02526246007531978	0.001464638628822606	-0.01893166625570453	-0.0189316662557051	-0.01028690915465963	0.004533751313084104	0.01206323799353684	-0.009924956192529996	-0.2860342619151338	-0.04350682175996922	-0.01614578161272107	-0.451721066536908	0.07376001040911974	-0.01564756457273256	0.3111312469346478	-0.02564446839588469	-25.27030961180299	-14.60387985025229	6.614955826737179	-5.185168653234803	-702.9672603519294	74.343515897511	0.3147599291620006	0.09445095472591487	0.7299566422220054	-2.645884383757335	-0.3820229208850371	-0.9333595997538715	-0.02844217687556871	-1.239592589277793	-1.239592589277906	-0.2209614864271358	0.1095481080097705	1.062351683071464	-0.1387330473845502	1.518451278059216e-08	-3.35329119091015e-08	1.924295019795918e-08	4.159307467439637e-08	1.351803476697189e-07	3.316821191204386e-08	1.374074216675752e-07
1.04	-0.2382352769537601	-0.03968443722883665	0.3589749469559622	2.179798879640279	-0.2251301669529744	0.1288536585546944	-0.7853270477438832	2.181200714438177	2.181200714438175	-0.1733317833807741	0.1736920316935849	0.3757821890036827	0.1647263890157525	0.03768769785923144	-0.0003382202506370568	0.02162793356515428	-0.09558507890617235	-0.01328283114976321	-0.03496823662218562	0.001179706723342031	-0.03355696856201992	-0.03355696856202123	-0.01209342458267409	0.005589695086528013	0.02298045650657277	-0.01128218372036699	-0.2911640428478789	-0.04317242850227814	-0.01631127587091578	-0.4592891997151971	0.07363053183162407	-0.01616783401924925	0.3161030436474283	-0.02559512566713304	-26.05998240235894	-15.04747440024261	6.776342857325175	-3.570607900355529	-712.6433434232745	75.17847372241515	0.256996543669494	0.05106860348013915	0.9077442851219669	-3.110985548464754	-0.3979412300032462	-1.005019362883002	-0.03217334609883066	-1.684695518547513	-1.684695518547517	-0.1360126181131671	0.1089305509169813	1.121549124669098	-0.1375143503743939	1.606349680467025e-08	-4.067949494489678e-08	1.525003620685523e-08	4.762652377116126e-08	1.565554415889335e-07	3.865267075017301e-08	1.389805304757639e-07
1.05	-0.2378467515750061	-0.03968593187017239	0.3592393333687908	2.178680502347806	-0.2252826249194693	0.1284525755284383	-0.7853164859709882	2.180774032882138	2.18077403288214	-0.1734586359403766	0.1737522843675951	0.3760691080389438	0.1646076473808823	0.03994047496605917	-2.237520637426435e-05	0.031523634249643	-0.1288203234296666	-0.01722209927467085	-0.04538502697846996	0.000931715816189949	-0.05245751822690185	-0.05245751822690276	-0.01318152829795825	0.006426492100534461	0.03450445700852851	-0.01244048305771947	-0.2959637443053407	-0.04282289859422313	-0.01647079186445636	-0.4663787211935242	0.07353331166165725	-0.01662147388851684	0.320800983761284	-0.02554298811504031	-26.78206358170546	-15.44522043258696	6.924621917055082	-2.150028318083222	-721.6632626507229	75.95848195764823	0.1978866924734876	0.0126280985676689	1.071634581375884	-3.539282976874355	-0.3939082376715667	-1.080506733973192	-0.02125176935857323	-2.094464418481512	-2.094464418481444	-0.08088458447485229	0.06591732841150173	1.182982214875987	-0.10112926914908	1.691145602352321e-08	-4.775641404329603e-08	1.115216707061481e-08	5.376081473084479e-08	1.775504037090459e-07	4.390432335686519e-08	1.402154496260489e-07
1.06	-0.237438004745527	-0.03968611093233187	0.3596109071127169	2.17720787479558	-0.2254748732940005	0.1279432250262251	-0.7853084320684225	2.180137999883847	2.180137999883848	-0.1735935046043774	0.1738198776220964	0.3764742984196079	0.1644780944438919	0.04173198800425049	-7.510441538357204e-05	0.04306539978467342	-0.1664351308564654	-0.02124091275705973	-0.05662173181363504	0.00067813265563004	-0.07542725701270279	-0.07542725701270286	-0.01369664546279433	0.007057811185301449	0.0466347255871717	-0.01344444414440723	-0.3007634457628039	-0.04247336868616882	-0.01663030785799757	-0.4734682426718512	0.07343609149169074	-0.01707511375778542	0.3254989238751386	-0.02548383418409362	-27.49856973119648	-15.84692570739946	7.079169445738747	-0.7855580259004031	-730.6341331522614	76.68465456083246	0.1647437299422182	-0.02264624717428203	1.236957255230302	-3.986898129125678	-0.4138503014994863	-1.16900225865914	-0.03329179678049456	-2.498533342731306	-2.498533342731221	-0.02141530802354893	0.06783496506907685	1.242802740006583	-0.1066467002414357	1.861432612731762e-08	-5.252768864306932e-08	8.94052889227398e-09	7.186983178064981e-08	1.898241522372394e-07	4.460974998565005e-08	1.604391411850983e-07
1.07	-0.2370135705690752	-0.03968858869525235	0.3601059223408365	2.175337804157602	-0.2257075652502769	0.1273178137335269	-0.7853028097951121	2.179252401676958	2.179252401676962	-0.1737305536200577	0.173892758989923	0.377003650011022	0.1643394208878937	0.04309105025382237	-0.0004739543056193	0.05619105659975794	-0.2082462209988091	-0.02530783737481656	-0.06860347535898284	0.0004550426217230084	-0.1023212754300479	-0.1023212754300512	-0.01364084579046299	0.007487431189295408	0.05931181531312904	-0.01427170916882513	-0.3052910478330213	-0.04208794886540029	-0.01677000261897272	-0.4802072434678127	0.07323585671598945	-0.01743364487818298	0.32995960795191	-0.02543109554761065	-28.20007607983759	-16.19486209570692	7.213908936029201	0.5277877347875205	-739.0481458237335	77.40899796670956	0.1119216006595282	-0.05648978668359343	1.388390529946472	-4.378296022412547	-0.4046479185686129	-1.234201479111564	-0.01550951465490831	-2.879173848237766	-2.879173848238348	0.02991021201624412	0.02589475865080949	1.291584419649506	-0.06796915759664104	2.03626702143536e-08	-5.717632257802208e-08	6.829222147863993e-09	9.061580234588692e-08	2.016340064254372e-07	4.507335608369514e-08	1.816728738297204e-07
